<svg width="11" height="13" viewBox="0 0 11 13" fill="none" xmlns="http://www.w3.org/2000/svg">
<path d="M7.93289 6.68746L4.74115 1.93013C4.69484 1.86929 4.63367 1.81969 4.56273 1.78547C4.49179 1.75125 4.41314 1.7334 4.33333 1.7334C4.25353 1.7334 4.17488 1.75125 4.10394 1.78547C4.033 1.81969 3.97183 1.86929 3.92552 1.93013L0.719334 6.70999C0.273908 7.38252 0.0257909 8.15308 0 8.94399C0 10.0197 0.456546 11.0514 1.2692 11.8121C2.08186 12.5727 3.18406 13.0001 4.33333 13.0001C5.4826 13.0001 6.5848 12.5727 7.39746 11.8121C8.21012 11.0514 8.66667 10.0197 8.66667 8.94399C8.63899 8.1444 8.38583 7.36589 7.93289 6.68746V6.68746ZM4.33333 12.0987C3.43981 12.0976 2.58321 11.7649 1.95139 11.1735C1.31957 10.5821 0.96411 9.78034 0.962963 8.94399C0.988555 8.31376 1.1908 7.70092 1.54941 7.16697L1.99959 6.49547L6.85004 11.0356C6.53501 11.3696 6.14772 11.6372 5.71384 11.8206C5.27995 12.004 4.80939 12.0989 4.33333 12.0992V12.0987Z" fill="#363B64"/>
<circle cx="8.66668" cy="1.73333" r="1.43333" fill="white" stroke="#363B64" stroke-width="0.6"/>
</svg>
