<svg width="10" height="13" viewBox="0 0 10 13" fill="none" xmlns="http://www.w3.org/2000/svg">
<path d="M9.15333 5.71622L5.47056 0.226994C5.41712 0.156797 5.34654 0.0995715 5.26469 0.0600863C5.18283 0.0206011 5.09208 0 5 0C4.90792 0 4.81717 0.0206011 4.73531 0.0600863C4.65346 0.0995715 4.58288 0.156797 4.52944 0.226994L0.83 5.74222C0.316047 6.51821 0.0297588 7.40732 0 8.31991C0 9.56115 0.526784 10.7515 1.46447 11.6292C2.40215 12.5069 3.67392 13 5 13C6.32608 13 7.59785 12.5069 8.53553 11.6292C9.47322 10.7515 10 9.56115 10 8.31991C9.96806 7.39731 9.67596 6.49903 9.15333 5.71622ZM5 11.96C3.96901 11.9587 2.98062 11.5748 2.2516 10.8925C1.52258 10.2101 1.11243 9.28494 1.11111 8.31991C1.14064 7.59272 1.374 6.8856 1.78778 6.26951L2.30722 5.4947L7.90389 10.7333C7.54039 11.1188 7.09352 11.4275 6.59289 11.6391C6.09226 11.8507 5.5493 11.9602 5 11.9605V11.96Z" fill="#363B64"/>
</svg>
