<svg width="814" height="297" viewBox="0 0 814 297" fill="none" xmlns="http://www.w3.org/2000/svg">
<path d="M261.535 101.772C262.733 101.54 264.067 101.385 265.537 101.308C267.006 101.231 268.243 101.192 269.249 101.192C270.37 101.192 271.646 101.231 273.077 101.308C274.507 101.385 275.841 101.54 277.079 101.772V181C275.841 181.232 274.507 181.387 273.077 181.464C271.646 181.541 270.37 181.58 269.249 181.58C268.243 181.58 267.006 181.541 265.537 181.464C264.067 181.387 262.733 181.232 261.535 181V101.772ZM289.626 102.642C290.863 102.101 292.216 101.675 293.686 101.366C295.155 101.018 296.586 100.844 297.978 100.844C300.646 100.844 302.598 101.443 303.836 102.642C305.073 103.841 305.962 106.064 306.504 109.312L312.478 143.822C312.864 146.103 313.29 148.655 313.754 151.478C314.218 154.301 314.643 157.065 315.03 159.772C315.416 162.44 315.726 164.702 315.958 166.558C316.035 167.254 316.132 167.679 316.248 167.834C316.402 167.989 316.673 168.066 317.06 168.066L328.138 103.338C329.646 103.067 331.308 102.893 333.126 102.816C334.982 102.7 336.644 102.642 338.114 102.642C339.66 102.642 341.362 102.7 343.218 102.816C345.074 102.893 346.698 103.067 348.09 103.338L358.298 166.558C358.414 167.293 358.549 167.737 358.704 167.892C358.858 168.008 359.11 168.066 359.458 168.066C359.728 165.823 360.076 163.252 360.502 160.352C360.927 157.452 361.372 154.533 361.836 151.594C362.338 148.655 362.802 146.007 363.228 143.648L370.942 101.772C372.063 101.54 373.223 101.385 374.422 101.308C375.659 101.231 376.819 101.192 377.902 101.192C379.1 101.192 380.357 101.289 381.672 101.482C383.025 101.637 384.243 101.869 385.326 102.178L386.08 103.164L370.072 180.884C368.254 181.116 366.05 181.29 363.46 181.406C360.908 181.561 358.626 181.638 356.616 181.638C354.257 181.638 352.188 181.232 350.41 180.42C348.67 179.569 347.548 177.559 347.046 174.388L342.348 146.374C341.652 142.198 340.936 137.616 340.202 132.628C339.506 127.601 338.887 122.942 338.346 118.65H337.534C336.915 122.942 336.2 127.582 335.388 132.57C334.614 137.519 333.86 142.121 333.126 146.374L326.92 180.942C325.064 181.135 322.918 181.29 320.482 181.406C318.084 181.561 315.861 181.638 313.812 181.638C311.298 181.638 309.133 181.232 307.316 180.42C305.537 179.569 304.338 177.539 303.72 174.33L289.626 102.642ZM450.219 168.124C450.219 172.571 449.523 175.877 448.131 178.042C446.739 180.169 444.013 181.232 439.953 181.232H407.299C404.554 181.232 402.389 180.401 400.803 178.738C399.218 177.075 398.425 174.813 398.425 171.952V102.526L399.179 101.772H447.609C447.803 102.932 447.938 104.034 448.015 105.078C448.093 106.083 448.131 107.031 448.131 107.92C448.131 108.809 448.015 109.892 447.783 111.168C447.59 112.444 447.281 113.662 446.855 114.822H421.277C420.465 114.822 419.363 114.822 417.971 114.822C416.579 114.822 415.149 114.803 413.679 114.764C413.679 116.349 413.699 117.722 413.737 118.882C413.776 120.003 413.795 121.318 413.795 122.826V134.774C415.226 134.774 416.618 134.774 417.971 134.774C419.363 134.735 420.465 134.716 421.277 134.716H440.997C441.307 135.683 441.519 136.785 441.635 138.022C441.79 139.221 441.867 140.245 441.867 141.096C441.867 141.985 441.79 143.029 441.635 144.228C441.519 145.388 441.307 146.471 440.997 147.476H421.277C420.465 147.476 419.363 147.476 417.971 147.476C416.618 147.437 415.226 147.399 413.795 147.36V161.164C413.795 162.44 413.776 163.619 413.737 164.702C413.699 165.785 413.679 166.983 413.679 168.298V168.356C414.917 168.279 416.193 168.221 417.507 168.182C418.822 168.143 420.253 168.124 421.799 168.124H450.219ZM465.452 101.598C469.898 101.521 474.248 101.443 478.502 101.366C482.794 101.25 486.931 101.192 490.914 101.192C499.227 101.192 505.684 102.971 510.286 106.528C514.887 110.047 517.188 115.286 517.188 122.246C517.188 125.803 516.202 129.051 514.23 131.99C512.258 134.929 509.725 137.036 506.632 138.312C509.222 139.124 511.6 140.516 513.766 142.488C515.931 144.421 517.671 146.78 518.986 149.564C520.3 152.309 520.958 155.287 520.958 158.496C520.958 165.843 518.522 171.527 513.65 175.548C508.816 179.569 501.779 181.58 492.538 181.58C487.975 181.58 483.49 181.522 479.082 181.406C474.674 181.329 470.13 181.251 465.452 181.174L464.64 180.362V102.41L465.452 101.598ZM490.334 112.56C489.019 112.56 487.376 112.56 485.404 112.56C483.47 112.56 481.672 112.521 480.01 112.444V133.73H490.16C493.292 133.73 495.689 133.189 497.352 132.106C499.053 131.023 500.213 129.67 500.832 128.046C501.489 126.383 501.818 124.721 501.818 123.058C501.818 121.357 501.489 119.713 500.832 118.128C500.213 116.504 499.072 115.17 497.41 114.126C495.786 113.082 493.427 112.56 490.334 112.56ZM480.01 170.386C484.418 170.309 488.362 170.27 491.842 170.27C495.515 170.27 498.299 169.613 500.194 168.298C502.127 166.945 503.442 165.301 504.138 163.368C504.834 161.435 505.182 159.579 505.182 157.8C505.182 155.983 504.776 154.107 503.964 152.174C503.19 150.202 501.798 148.539 499.788 147.186C497.816 145.833 495.032 145.156 491.436 145.156H480.01V170.386ZM576.756 131.294C576.833 128.239 576.446 125.281 575.596 122.42C574.784 119.559 573.314 117.2 571.188 115.344C569.1 113.488 566.161 112.56 562.372 112.56C556.842 112.56 552.782 115.054 550.192 120.042C547.601 125.03 546.306 132.28 546.306 141.792C546.306 150.685 547.833 157.452 550.888 162.092C553.981 166.732 558.292 169.052 563.822 169.052C567.611 169.052 571.168 168.24 574.494 166.616C577.819 164.992 580.99 162.981 584.006 160.584C585.591 161.667 587.118 163.175 588.588 165.108C590.057 167.003 590.985 168.859 591.372 170.676C588.085 173.924 583.754 176.727 578.38 179.086C573.005 181.445 567.224 182.624 561.038 182.624C555.199 182.624 550.288 181.464 546.306 179.144C542.323 176.824 539.133 173.711 536.736 169.806C534.338 165.862 532.598 161.473 531.516 156.64C530.472 151.768 529.95 146.799 529.95 141.734C529.95 132.029 531.438 124.121 534.416 118.012C537.432 111.864 541.434 107.34 546.422 104.44C551.41 101.54 556.881 100.09 562.836 100.09C568.713 100.09 573.798 101.153 578.09 103.28C582.42 105.407 585.765 108.249 588.124 111.806C590.521 115.363 591.72 119.269 591.72 123.522C591.72 129.283 588.762 132.164 582.846 132.164C581.724 132.164 580.68 132.087 579.714 131.932C578.786 131.777 577.8 131.565 576.756 131.294ZM599.618 141.328C599.618 133.285 600.816 126.171 603.213 119.984C605.65 113.759 609.342 108.906 614.292 105.426C619.241 101.907 625.505 100.148 633.084 100.148C640.74 100.148 647.042 101.927 651.992 105.484C656.941 109.003 660.614 113.855 663.012 120.042C665.409 126.229 666.608 133.324 666.608 141.328C666.608 149.409 665.39 156.563 662.954 162.788C660.556 168.975 656.883 173.827 651.934 177.346C646.984 180.865 640.701 182.624 633.084 182.624C625.466 182.624 619.183 180.865 614.234 177.346C609.284 173.789 605.611 168.897 603.213 162.672C600.816 156.447 599.618 149.332 599.618 141.328ZM615.916 141.328C615.916 144.615 616.128 147.959 616.554 151.362C616.979 154.765 617.791 157.916 618.99 160.816C620.188 163.716 621.909 166.055 624.152 167.834C626.433 169.613 629.41 170.502 633.084 170.502C636.796 170.502 639.773 169.613 642.016 167.834C644.297 166.055 646.037 163.716 647.236 160.816C648.434 157.916 649.246 154.765 649.672 151.362C650.097 147.959 650.31 144.615 650.31 141.328C650.31 138.041 650.097 134.697 649.672 131.294C649.246 127.891 648.434 124.759 647.236 121.898C646.037 119.037 644.297 116.717 642.016 114.938C639.773 113.159 636.796 112.27 633.084 112.27C629.41 112.27 626.433 113.159 624.152 114.938C621.909 116.717 620.188 119.037 618.99 121.898C617.791 124.759 616.979 127.891 616.554 131.294C616.128 134.697 615.916 138.041 615.916 141.328ZM742.774 141.386C742.774 145.91 742.465 150.26 741.846 154.436C741.228 158.573 740.01 162.459 738.192 166.094C736.375 169.69 733.668 172.919 730.072 175.78C728.332 177.172 726.244 178.293 723.808 179.144C721.372 179.995 718.878 180.613 716.326 181C713.774 181.425 711.435 181.638 709.308 181.638C704.475 181.638 699.951 181.58 695.736 181.464C691.56 181.387 686.959 181.29 681.932 181.174L681.12 180.362V102.41L681.932 101.598C686.92 101.443 691.522 101.347 695.736 101.308C699.951 101.231 704.475 101.192 709.308 101.192C711.435 101.192 713.774 101.385 716.326 101.772C718.878 102.159 721.372 102.797 723.808 103.686C726.283 104.537 728.371 105.658 730.072 107.05C733.63 109.911 736.317 113.159 738.134 116.794C739.952 120.39 741.17 124.276 741.788 128.452C742.446 132.589 742.774 136.901 742.774 141.386ZM726.708 141.386C726.708 138.177 726.496 134.948 726.07 131.7C725.684 128.413 724.891 125.397 723.692 122.652C722.494 119.907 720.734 117.703 718.414 116.04C716.133 114.339 713.098 113.488 709.308 113.488C707.104 113.488 705.016 113.488 703.044 113.488C701.111 113.449 698.984 113.411 696.664 113.372V169.342C698.984 169.342 701.111 169.342 703.044 169.342C705.016 169.342 707.104 169.342 709.308 169.342C713.098 169.342 716.133 168.511 718.414 166.848C720.734 165.147 722.494 162.923 723.692 160.178C724.891 157.394 725.684 154.359 726.07 151.072C726.496 147.785 726.708 144.557 726.708 141.386ZM809.208 168.124C809.208 172.571 808.512 175.877 807.12 178.042C805.728 180.169 803.002 181.232 798.942 181.232H766.288C763.542 181.232 761.377 180.401 759.792 178.738C758.206 177.075 757.414 174.813 757.414 171.952V102.526L758.168 101.772H806.598C806.791 102.932 806.926 104.034 807.004 105.078C807.081 106.083 807.12 107.031 807.12 107.92C807.12 108.809 807.004 109.892 806.772 111.168C806.578 112.444 806.269 113.662 805.844 114.822H780.266C779.454 114.822 778.352 114.822 776.96 114.822C775.568 114.822 774.137 114.803 772.668 114.764C772.668 116.349 772.687 117.722 772.726 118.882C772.764 120.003 772.784 121.318 772.784 122.826V134.774C774.214 134.774 775.606 134.774 776.96 134.774C778.352 134.735 779.454 134.716 780.266 134.716H799.986C800.295 135.683 800.508 136.785 800.624 138.022C800.778 139.221 800.856 140.245 800.856 141.096C800.856 141.985 800.778 143.029 800.624 144.228C800.508 145.388 800.295 146.471 799.986 147.476H780.266C779.454 147.476 778.352 147.476 776.96 147.476C775.606 147.437 774.214 147.399 772.784 147.36V161.164C772.784 162.44 772.764 163.619 772.726 164.702C772.687 165.785 772.668 166.983 772.668 168.298V168.356C773.905 168.279 775.181 168.221 776.496 168.182C777.81 168.143 779.241 168.124 780.788 168.124H809.208Z" fill="#111111"/>
<path d="M648.119 214.242C648.119 216.153 647.98 217.999 647.703 219.779C647.441 221.543 646.919 223.193 646.135 224.728C645.351 226.263 644.175 227.635 642.607 228.844C641.855 229.432 640.949 229.906 639.887 230.265C638.842 230.624 637.764 230.886 636.653 231.049C635.543 231.212 634.53 231.294 633.615 231.294C631.508 231.294 629.458 231.27 627.466 231.221C625.489 231.188 623.431 231.147 621.292 231.098L620.949 230.755V197.778L621.292 197.435C623.399 197.37 625.449 197.321 627.441 197.288C629.45 197.255 631.508 197.239 633.615 197.239C634.53 197.239 635.543 197.329 636.653 197.508C637.764 197.672 638.85 197.933 639.912 198.292C640.973 198.652 641.872 199.125 642.607 199.713C644.158 200.922 645.326 202.294 646.11 203.829C646.894 205.348 647.425 206.99 647.703 208.754C647.98 210.518 648.119 212.347 648.119 214.242ZM640.059 214.242C640.059 213.001 639.977 211.743 639.814 210.469C639.667 209.179 639.373 208.003 638.932 206.941C638.507 205.863 637.862 204.997 636.996 204.344C636.147 203.674 635.02 203.339 633.615 203.339C632.782 203.339 631.982 203.339 631.214 203.339C630.447 203.339 629.63 203.323 628.764 203.29V225.218C629.63 225.202 630.447 225.193 631.214 225.193C631.982 225.193 632.782 225.193 633.615 225.193C635.02 225.193 636.147 224.867 636.996 224.213C637.862 223.544 638.507 222.67 638.932 221.592C639.373 220.498 639.667 219.313 639.814 218.039C639.977 216.749 640.059 215.483 640.059 214.242ZM681.707 224.581C681.707 226.737 681.364 228.37 680.678 229.481C680.009 230.592 678.637 231.147 676.562 231.147H663.528C662.124 231.147 661.021 230.739 660.221 229.922C659.42 229.105 659.02 227.986 659.02 226.565V197.876L659.363 197.533H680.482C680.597 198.121 680.67 198.676 680.703 199.199C680.735 199.705 680.752 200.179 680.752 200.62C680.752 201.061 680.695 201.608 680.58 202.261C680.482 202.898 680.327 203.511 680.115 204.099H670.094C669.735 204.099 669.245 204.099 668.624 204.099C668.02 204.083 667.391 204.066 666.738 204.05C666.738 204.72 666.746 205.324 666.762 205.863C666.779 206.386 666.787 206.974 666.787 207.627V211.032C667.44 211.016 668.069 211.008 668.673 211.008C669.278 210.992 669.751 210.983 670.094 210.983H677.567C677.73 211.457 677.844 212.004 677.91 212.625C677.991 213.246 678.032 213.768 678.032 214.193C678.032 214.634 677.991 215.148 677.91 215.736C677.844 216.324 677.73 216.872 677.567 217.378H670.094C669.751 217.378 669.278 217.378 668.673 217.378C668.069 217.362 667.44 217.345 666.787 217.329V221.102C666.787 221.739 666.779 222.327 666.762 222.866C666.746 223.389 666.738 223.977 666.738 224.63V224.679C667.293 224.646 667.865 224.622 668.453 224.605C669.041 224.589 669.678 224.581 670.364 224.581H681.707ZM689.559 228.084C689.657 226.99 689.992 225.904 690.564 224.826C691.152 223.748 691.829 222.882 692.597 222.229C693.969 223.062 695.529 223.805 697.277 224.458C699.024 225.112 700.772 225.438 702.52 225.438C703.941 225.438 704.961 225.095 705.582 224.409C706.203 223.723 706.513 222.988 706.513 222.204C706.513 221.665 706.342 221.061 705.999 220.391C705.656 219.722 704.798 219.101 703.426 218.529L697.522 216.079C695.496 215.23 693.822 214.095 692.499 212.674C691.176 211.253 690.515 209.375 690.515 207.039C690.515 204.997 691.045 203.209 692.107 201.673C693.169 200.138 694.598 198.946 696.395 198.096C698.208 197.231 700.225 196.798 702.446 196.798C704.749 196.798 706.921 197.108 708.963 197.729C711.005 198.333 712.663 198.962 713.937 199.615C713.871 200.742 713.602 201.829 713.128 202.874C712.671 203.903 712.058 204.769 711.291 205.471C710.049 204.883 708.596 204.344 706.93 203.854C705.264 203.348 703.769 203.094 702.446 203.094C701.041 203.094 700.037 203.413 699.433 204.05C698.845 204.687 698.551 205.332 698.551 205.985C698.551 206.606 698.755 207.161 699.163 207.651C699.588 208.141 700.339 208.615 701.417 209.072L707.444 211.547C709.812 212.527 711.634 213.858 712.908 215.54C714.198 217.223 714.843 219.117 714.843 221.224C714.843 223.201 714.361 224.981 713.398 226.565C712.45 228.15 711.021 229.407 709.11 230.338C707.199 231.27 704.814 231.735 701.956 231.735C699.98 231.735 697.873 231.425 695.635 230.804C693.397 230.167 691.372 229.26 689.559 228.084ZM725.312 197.533C725.949 197.419 726.643 197.345 727.394 197.312C728.145 197.263 728.766 197.239 729.256 197.239C729.779 197.239 730.399 197.263 731.118 197.312C731.837 197.345 732.523 197.419 733.176 197.533V231C732.523 231.114 731.837 231.188 731.118 231.221C730.399 231.27 729.779 231.294 729.256 231.294C728.766 231.294 728.145 231.27 727.394 231.221C726.643 231.188 725.949 231.114 725.312 231V197.533ZM764.604 221.91C764.604 221.371 764.612 220.816 764.628 220.244C764.645 219.673 764.669 219.093 764.702 218.505H762.301C761.043 218.505 760.104 218.268 759.483 217.794C758.863 217.321 758.552 216.463 758.552 215.222C758.552 214.716 758.601 214.168 758.699 213.58C758.814 212.992 758.952 212.462 759.116 211.988H766.784C768.728 211.988 770.075 212.445 770.827 213.36C771.578 214.258 771.954 215.418 771.954 216.839V229.701C770.533 230.175 768.695 230.632 766.441 231.074C764.187 231.515 761.721 231.735 759.042 231.735C755.694 231.735 752.917 231.033 750.712 229.628C748.524 228.223 746.89 226.231 745.812 223.65C744.734 221.069 744.195 218.015 744.195 214.487C744.195 211.514 744.628 208.925 745.494 206.72C746.359 204.499 747.535 202.662 749.022 201.208C750.508 199.738 752.182 198.635 754.044 197.9C755.906 197.165 757.834 196.798 759.826 196.798C762.08 196.798 764.236 197.125 766.294 197.778C768.352 198.431 770.214 199.272 771.88 200.301C771.799 201.412 771.39 202.498 770.655 203.56C769.937 204.622 769.177 205.414 768.377 205.936C767.184 205.136 765.878 204.499 764.457 204.025C763.052 203.535 761.664 203.29 760.292 203.29C757.809 203.29 755.841 204.189 754.387 205.985C752.934 207.766 752.207 210.616 752.207 214.536C752.207 218.358 752.909 221.151 754.314 222.915C755.735 224.679 757.76 225.561 760.39 225.561C761.174 225.561 761.917 225.52 762.619 225.438C763.322 225.357 763.983 225.259 764.604 225.144V221.91ZM793.234 213.458C792.695 212.2 792.189 210.967 791.715 209.758C791.242 208.55 790.833 207.48 790.49 206.549L790.294 206.622C790.425 208.011 790.531 209.587 790.613 211.351C790.711 213.099 790.784 214.846 790.833 216.594C790.882 218.342 790.907 219.893 790.907 221.249V231C790.27 231.114 789.641 231.188 789.02 231.221C788.4 231.27 787.844 231.294 787.354 231.294C786.881 231.294 786.285 231.27 785.566 231.221C784.864 231.188 784.21 231.114 783.606 231V197.68C784.21 197.533 785.011 197.427 786.007 197.361C787.003 197.28 787.746 197.239 788.236 197.239C788.743 197.239 789.412 197.263 790.245 197.312C791.078 197.345 791.928 197.419 792.793 197.533L800.339 215.026C800.96 216.463 801.532 217.835 802.054 219.142C802.593 220.449 803.043 221.551 803.402 222.449L803.598 222.376C803.467 220.857 803.353 219.191 803.255 217.378C803.173 215.565 803.108 213.817 803.059 212.135C803.01 210.453 802.985 209.048 802.985 207.921V201.943C802.985 200.195 803.337 198.97 804.039 198.268C804.758 197.566 805.868 197.214 807.371 197.214H809.919L810.237 197.533V230.853C809.617 231 808.8 231.106 807.787 231.172C806.791 231.253 806.032 231.294 805.509 231.294C805.003 231.294 804.333 231.27 803.5 231.221C802.667 231.188 801.826 231.114 800.976 231L793.234 213.458Z" fill="#111111"/>
<path d="M118.5 28.31L14.58 88.31V208.31L118.5 268.31L222.42 208.31V88.31L118.5 28.31Z" fill="#111111"/>
<path d="M121.376 106.5V67.5L187.063 106L150.515 123.5L121.376 106.5Z" fill="white" stroke="#111111"/>
<path d="M151.997 173L187.557 192L120.882 230.809L120.882 191L151.997 173Z" fill="white" stroke="#111111"/>
<path d="M81.865 165.5L47.2928 187.5L47.2928 112L81.865 133L81.865 165.5Z" fill="white" stroke="#111111"/>
<path d="M155.948 169L190.026 187L190.026 110.779L155.948 127L155.948 169Z" fill="white" stroke="#111111"/>
<path d="M115.943 107.5L115.943 67L48.2805 106.5L82.3588 127L115.943 107.5Z" fill="white" stroke="#111111"/>
<path d="M82.8528 171L49.7622 192L115.544 230.5L115.544 190.5L82.8528 171Z" fill="white" stroke="#111111"/>
</svg>
