<svg width="21" height="28" viewBox="0 0 21 28" fill="none" xmlns="http://www.w3.org/2000/svg">
<path d="M10.5 27.1765C8.60539 25.5502 6.84927 23.7673 5.24999 21.8464C2.84999 18.9617 1.31834e-06 14.6657 1.31834e-06 10.5719C-0.00103953 8.48114 0.614262 6.43709 1.76804 4.6984C2.92181 2.95972 4.5622 1.60456 6.48159 0.804429C8.40098 0.00429715 10.5131 -0.20484 12.5506 0.203484C14.5882 0.611809 16.4596 1.61924 17.928 3.09828C18.9056 4.07774 19.6805 5.2426 20.2078 6.52543C20.7351 7.80827 21.0043 9.18361 20.9999 10.5719C20.9999 14.6657 18.15 18.9617 15.75 21.8464C14.1507 23.7673 12.3946 25.5502 10.5 27.1765ZM10.5 6.04334C9.3065 6.04334 8.16191 6.52045 7.318 7.36971C6.47409 8.21898 5.99999 9.37083 5.99999 10.5719C5.99999 11.7729 6.47409 12.9248 7.318 13.774C8.16191 14.6233 9.3065 15.1004 10.5 15.1004C11.6934 15.1004 12.838 14.6233 13.6819 13.774C14.5259 12.9248 15 11.7729 15 10.5719C15 9.37083 14.5259 8.21898 13.6819 7.36971C12.838 6.52045 11.6934 6.04334 10.5 6.04334Z" fill="#363B64"/>
</svg>
