<svg width="17" height="17" viewBox="0 0 17 17" fill="none" xmlns="http://www.w3.org/2000/svg">
<path d="M11.2865 12.1429L7.89258 8.74898V3.03577H9.10686V8.24505L12.1426 11.2868L11.2865 12.1429Z" fill="#9B9B9B"/>
<path d="M8.5 0C7.36765 0.000160425 6.24685 0.227544 5.20396 0.668684C4.16108 1.10982 3.21732 1.75575 2.42857 2.56821V0H1.21429V4.85714H6.07143V3.64286H3.08429C4.2233 2.37714 5.76967 1.55036 7.45481 1.30609C9.13996 1.06182 10.8574 1.4155 12.309 2.30571C13.7605 3.19591 14.8544 4.56641 15.4006 6.17917C15.9469 7.79193 15.911 9.54508 15.2992 11.1341C14.6874 12.7232 13.5384 14.0478 12.0516 14.8778C10.5649 15.7079 8.83438 15.991 7.16064 15.678C5.48689 15.365 3.97566 14.4756 2.88939 13.1643C1.80312 11.8531 1.21044 10.2028 1.21429 8.5H0C0 10.1811 0.498516 11.8245 1.43251 13.2223C2.3665 14.6202 3.69402 15.7096 5.24719 16.353C6.80036 16.9963 8.50943 17.1646 10.1583 16.8367C11.8071 16.5087 13.3217 15.6992 14.5104 14.5104C15.6992 13.3217 16.5087 11.8071 16.8367 10.1583C17.1646 8.50943 16.9963 6.80036 16.353 5.24719C15.7096 3.69402 14.6202 2.3665 13.2223 1.43251C11.8245 0.498516 10.1811 0 8.5 0Z" fill="#9B9B9B"/>
</svg>
