<svg width="8" height="14" viewBox="0 0 8 14" fill="none" xmlns="http://www.w3.org/2000/svg">
<path d="M1.00176 13.3847C0.768107 13.3852 0.541671 13.3076 0.361759 13.1655C0.260501 13.0855 0.176799 12.9873 0.115447 12.8764C0.0540955 12.7655 0.0162993 12.6442 0.00422342 12.5193C-0.00785243 12.3945 0.00602957 12.2686 0.045074 12.1489C0.0841184 12.0292 0.147557 11.918 0.231759 11.8217L4.71175 6.71339L0.39176 1.5955C0.308694 1.49801 0.246662 1.38584 0.209231 1.26543C0.171799 1.14503 0.159705 1.01876 0.173644 0.893879C0.187583 0.769002 0.22728 0.647982 0.290454 0.537774C0.353628 0.427567 0.439033 0.330345 0.541759 0.251696C0.645225 0.164934 0.76639 0.09949 0.897652 0.0594723C1.02891 0.0194546 1.16744 0.00572714 1.30453 0.0191508C1.44162 0.0325744 1.57433 0.0728596 1.69431 0.137478C1.81429 0.202097 1.91896 0.289654 2.00176 0.394654L6.83175 6.11296C6.97883 6.28349 7.05923 6.4974 7.05923 6.71815C7.05923 6.9389 6.97883 7.15281 6.83175 7.32334L1.83176 13.0416C1.73144 13.157 1.60401 13.2482 1.4598 13.3078C1.31559 13.3674 1.15866 13.3938 1.00176 13.3847Z" fill="white"/>
</svg>
