<svg width="14" height="14" viewBox="0 0 14 14" fill="none" xmlns="http://www.w3.org/2000/svg">
<path d="M0 7C0 3.1332 3.1339 0 7 0C10.8661 0 14 3.1332 14 7C14 10.8654 10.8661 14 7 14C3.1339 14 0 10.8654 0 7ZM3.8283 6.4533L3.7772 6.5121C3.71111 6.60136 3.67502 6.70929 3.67414 6.82035C3.67326 6.93142 3.70763 7.0399 3.7723 7.1302L3.8283 7.196L3.8871 7.2464C3.97636 7.31249 4.08429 7.34858 4.19535 7.34946C4.30642 7.35034 4.4149 7.31597 4.5052 7.2513L4.571 7.1953L6.475 5.292L6.475 9.975L6.4792 10.0464C6.49482 10.16 6.54721 10.2654 6.62836 10.3464C6.70952 10.4274 6.81497 10.4797 6.9286 10.4951L6.9993 10.5L7.0707 10.4951C7.18421 10.4795 7.2895 10.4272 7.37051 10.3462C7.45153 10.2652 7.50381 10.1599 7.5194 10.0464L7.5243 9.975L7.5243 5.292L9.4283 7.196L9.4878 7.2471C9.5889 7.32293 9.71396 7.35974 9.84002 7.35078C9.96607 7.34182 10.0847 7.28769 10.174 7.19833C10.2634 7.10897 10.3175 6.99037 10.3265 6.86432C10.3354 6.73826 10.2986 6.6132 10.2228 6.5121L10.1717 6.454L7.3717 3.6526L7.3122 3.6022C7.22308 3.53616 7.11533 3.50005 7.00441 3.49905C6.89349 3.49804 6.78511 3.53219 6.6948 3.5966L6.629 3.6526L3.8283 6.4526L3.7772 6.5121L3.8283 6.4533Z" fill="white"/>
</svg>
