<svg width="62" height="71" viewBox="0 0 62 71" fill="none" xmlns="http://www.w3.org/2000/svg">
<path d="M31.0105 70.3461C30.4229 70.3461 29.8593 70.1145 29.4438 69.7023C29.0282 69.29 28.7948 68.7309 28.7948 68.1478V62.463L25.9321 65.3076C25.5161 65.7198 24.952 65.9511 24.364 65.9507C23.7761 65.9503 23.2123 65.7182 22.7969 65.3054C22.3814 64.8926 22.1482 64.333 22.1487 63.7496C22.1491 63.1663 22.383 62.607 22.7991 62.1948L28.7948 56.2461V51.4714L25.9321 54.316C25.7261 54.5201 25.4816 54.682 25.2125 54.7923C24.9435 54.9027 24.6552 54.9594 24.364 54.9591C23.7761 54.9587 23.2123 54.7266 22.7969 54.3138C22.3814 53.901 22.1482 53.3414 22.1487 52.758C22.1491 52.1747 22.383 51.6154 22.7991 51.2032L28.7948 45.2546V38.9806L23.3176 42.1154L21.124 50.2491C21.0484 50.528 20.9181 50.7894 20.7406 51.0183C20.5632 51.2472 20.342 51.4392 20.0898 51.5833C19.8375 51.7274 19.5591 51.8208 19.2705 51.8582C18.9819 51.8956 18.6886 51.8762 18.4076 51.8011C18.1265 51.7261 17.863 51.5968 17.6323 51.4208C17.4016 51.2447 17.2081 51.0253 17.0628 50.775C16.9176 50.5247 16.8234 50.2485 16.7857 49.9622C16.7481 49.6758 16.7676 49.3849 16.8433 49.106L17.8935 45.2282L13.728 47.6111L11.53 55.7449C11.3772 56.3081 11.0052 56.788 10.4957 57.0791C9.9863 57.3702 9.38119 57.4485 8.81353 57.2969C8.24586 57.1453 7.76215 56.7762 7.46879 56.2708C7.17542 55.7654 7.09645 55.165 7.24924 54.6018L8.29948 50.724L3.33629 53.5642C2.82766 53.8511 2.22529 53.9268 1.66063 53.7747C1.09597 53.6226 0.614874 53.2551 0.322319 52.7523C0.0297646 52.2496 -0.050494 51.6525 0.0990577 51.0913C0.248609 50.53 0.61583 50.0503 1.12058 49.7567L6.08377 46.9165L2.1664 45.8745C1.88532 45.7994 1.6219 45.6702 1.39116 45.4941C1.16043 45.318 0.966913 45.0986 0.821655 44.8483C0.676397 44.5981 0.582246 44.3219 0.544575 44.0355C0.506905 43.7491 0.526455 43.4582 0.602107 43.1793C0.67776 42.9005 0.808034 42.6391 0.985492 42.4102C1.16295 42.1813 1.38412 41.9893 1.63636 41.8452C1.88861 41.701 2.167 41.6076 2.45563 41.5702C2.74426 41.5329 3.03749 41.5523 3.31857 41.6273L11.5078 43.8037L15.6734 41.4207L11.7649 40.3787C11.4795 40.3081 11.2111 40.1819 10.9755 40.0074C10.7398 39.8329 10.5415 39.6135 10.3921 39.3622C10.2427 39.1109 10.1452 38.8325 10.1054 38.5434C10.0656 38.2543 10.0841 37.9603 10.16 37.6784C10.2359 37.3965 10.3676 37.1324 10.5474 36.9015C10.7272 36.6706 10.9516 36.4775 11.2074 36.3336C11.4632 36.1896 11.7453 36.0976 12.0373 36.0629C12.3293 36.0282 12.6253 36.0515 12.9082 36.1315L21.1063 38.3079L26.5791 35.1731L21.1019 32.0383L12.9082 34.2146C12.6253 34.2946 12.3293 34.3179 12.0373 34.2832C11.7453 34.2486 11.4632 34.1565 11.2074 34.0126C10.9516 33.8686 10.7272 33.6755 10.5474 33.4446C10.3676 33.2138 10.2359 32.9497 10.16 32.6678C10.0841 32.3859 10.0656 32.0918 10.1054 31.8027C10.1452 31.5136 10.2427 31.2353 10.3921 30.9839C10.5415 30.7326 10.7398 30.5133 10.9755 30.3388C11.2111 30.1642 11.4795 30.038 11.7649 29.9675L15.6778 28.9255L11.5123 26.5425L3.31414 28.7188C2.75017 28.8583 2.15355 28.7723 1.65289 28.4794C1.15222 28.1865 0.787604 27.7101 0.637628 27.153C0.487652 26.5959 0.564327 26.0026 0.851126 25.501C1.13792 24.9994 1.61188 24.6298 2.17083 24.4717L6.08377 23.4297L1.12058 20.5894C0.866562 20.4461 0.643617 20.2544 0.464584 20.0253C0.285551 19.7962 0.153966 19.5342 0.0774051 19.2544C0.000844013 18.9746 -0.0191812 18.6825 0.0184828 18.3951C0.0561468 18.1076 0.150756 17.8303 0.296863 17.5792C0.442971 17.3281 0.637689 17.1082 0.869811 16.9321C1.10193 16.756 1.36687 16.6272 1.64937 16.5531C1.93187 16.479 2.22636 16.4611 2.51587 16.5004C2.80539 16.5396 3.08421 16.6353 3.33629 16.7819L8.29948 19.6222L7.24924 15.7399C7.10868 15.1804 7.19535 14.5885 7.49057 14.0917C7.78578 13.595 8.26591 13.2332 8.82745 13.0844C9.38899 12.9357 9.98697 13.0117 10.4925 13.2963C10.998 13.5808 11.3706 14.0511 11.53 14.6056L13.7235 22.735L17.8891 25.118L16.8433 21.2357C16.7027 20.6762 16.7894 20.0843 17.0846 19.5875C17.3798 19.0908 17.8599 18.729 18.4215 18.5802C18.983 18.4314 19.581 18.5075 20.0865 18.7921C20.5921 19.0766 20.9647 19.5468 21.124 20.1014L23.3176 28.2308L28.7948 31.3656V25.0916L22.7991 19.1429C22.383 18.7307 22.1491 18.1714 22.1487 17.5881C22.1482 17.0047 22.3814 16.4451 22.7969 16.0323C23.2123 15.6195 23.7761 15.3874 24.364 15.387C24.952 15.3866 25.5161 15.6179 25.9321 16.0301L28.7948 18.8747V14.1L22.7991 8.15136C22.5931 7.94726 22.4296 7.7049 22.318 7.43811C22.2064 7.17133 22.1489 6.88535 22.1487 6.59651C22.1484 6.30766 22.2056 6.0216 22.3168 5.75466C22.428 5.48772 22.5912 5.24513 22.7969 5.04074C23.0026 4.83635 23.2469 4.67416 23.5158 4.56344C23.7847 4.45271 24.0729 4.39562 24.364 4.39541C24.6552 4.39521 24.9435 4.4519 25.2125 4.56225C25.4816 4.67259 25.7261 4.83444 25.9321 5.03854L28.7948 7.88316V2.19832C28.7948 1.61529 29.0282 1.05614 29.4438 0.643872C29.8593 0.231608 30.4229 0 31.0105 0C31.5982 0 32.1617 0.231608 32.5773 0.643872C32.9928 1.05614 33.2262 1.61529 33.2262 2.19832V7.88316L36.0933 5.03854C36.5094 4.62634 37.0735 4.395 37.6614 4.39541C38.2494 4.39582 38.8131 4.62796 39.2286 5.04074C39.644 5.45353 39.8772 6.01315 39.8768 6.59651C39.8764 7.17986 39.6424 7.73916 39.2264 8.15136L33.2262 14.1V18.8747L36.0933 16.0301C36.5094 15.6179 37.0735 15.3866 37.6614 15.387C38.2494 15.3874 38.8131 15.6195 39.2286 16.0323C39.644 16.4451 39.8772 17.0047 39.8768 17.5881C39.8764 18.1714 39.6424 18.7307 39.2264 19.1429L33.2262 25.0916V31.3656L38.7035 28.2308L40.897 20.097C40.9727 19.8181 41.1029 19.5568 41.2804 19.3279C41.4579 19.0989 41.679 18.9069 41.9313 18.7628C42.1835 18.6187 42.4619 18.5253 42.7505 18.4879C43.0392 18.4505 43.3324 18.4699 43.6135 18.545C43.8945 18.6201 44.158 18.7493 44.3887 18.9254C44.6194 19.1014 44.813 19.3209 44.9582 19.5711C45.1035 19.8214 45.1976 20.0976 45.2353 20.384C45.273 20.6703 45.2534 20.9613 45.1778 21.2401L44.1319 25.118L48.2975 22.735L50.491 14.6012C50.6438 14.038 51.0159 13.5581 51.5253 13.267C52.0347 12.976 52.6398 12.8976 53.2075 13.0492C53.7752 13.2008 54.2589 13.5699 54.5522 14.0753C54.8456 14.5808 54.9246 15.1811 54.7718 15.7443L53.726 19.6222L58.6892 16.7819C59.1978 16.495 59.8002 16.4194 60.3648 16.5715C60.9295 16.7236 61.4106 17.0911 61.7031 17.5938C61.9957 18.0965 62.0759 18.6937 61.9264 19.2549C61.7768 19.8161 61.4096 20.2958 60.9049 20.5894L55.9417 23.4297L59.8546 24.4717C60.4223 24.6233 60.906 24.9924 61.1994 25.4978C61.4927 26.0032 61.5717 26.6036 61.4189 27.1668C61.2661 27.73 60.8941 28.2099 60.3847 28.501C59.8752 28.792 59.2701 28.8704 58.7024 28.7188L50.5132 26.5425L46.3477 28.9255L50.2606 29.9675C50.8283 30.119 51.312 30.4882 51.6053 30.9936C51.8987 31.499 51.9777 32.0994 51.8249 32.6626C51.6721 33.2258 51.3001 33.7057 50.7906 33.9968C50.2812 34.2878 49.6761 34.3662 49.1084 34.2146L40.9192 32.0383L35.4419 35.1731L40.9192 38.3079L49.1129 36.1315C49.6805 35.9805 50.2854 36.0594 50.7944 36.3509C51.3034 36.6424 51.6749 37.1225 51.8271 37.6857C51.9793 38.249 51.8998 38.8491 51.606 39.3541C51.3122 39.8591 50.8283 40.2277 50.2606 40.3787L46.3477 41.4207L50.5132 43.8037L58.7069 41.6273C59.2745 41.4763 59.8794 41.5552 60.3884 41.8467C60.8975 42.1382 61.2689 42.6183 61.4211 43.1815C61.5733 43.7447 61.4938 44.3449 61.2 44.8499C60.9062 45.3549 60.4223 45.7235 59.8546 45.8745L55.9417 46.9165L60.9049 49.7567C61.4096 50.0503 61.7768 50.53 61.9264 51.0913C62.0759 51.6525 61.9957 52.2496 61.7031 52.7523C61.4106 53.2551 60.9295 53.6226 60.3648 53.7747C59.8002 53.9268 59.1978 53.8511 58.6892 53.5642L53.726 50.724L54.7718 54.6062C54.8524 54.8868 54.8759 55.1805 54.841 55.4702C54.806 55.7599 54.7133 56.0399 54.5682 56.2936C54.423 56.5474 54.2285 56.77 53.9957 56.9484C53.763 57.1268 53.4968 57.2575 53.2127 57.3328C52.9286 57.4081 52.6322 57.4265 52.3408 57.3869C52.0494 57.3474 51.7689 57.2507 51.5156 57.1025C51.2622 56.9543 51.0412 56.7576 50.8653 56.5237C50.6894 56.2899 50.5622 56.0236 50.491 55.7405L48.2975 47.6111L44.1319 45.2282L45.1778 49.1104C45.3183 49.6699 45.2316 50.2619 44.9364 50.7586C44.6412 51.2553 44.1611 51.6171 43.5996 51.7659C43.038 51.9147 42.44 51.8386 41.9345 51.5541C41.429 51.2695 41.0564 50.7993 40.897 50.2447L38.7035 42.1198L33.2262 38.9806V45.2546L39.2264 51.2032C39.6424 51.6154 39.8764 52.1747 39.8768 52.758C39.8772 53.3414 39.644 53.901 39.2286 54.3138C38.8131 54.7266 38.2494 54.9587 37.6614 54.9591C37.0735 54.9596 36.5094 54.7282 36.0933 54.316L33.2262 51.4714V56.2461L39.2264 62.1948C39.6424 62.607 39.8764 63.1663 39.8768 63.7496C39.8772 64.333 39.644 64.8926 39.2286 65.3054C38.8131 65.7182 38.2494 65.9503 37.6614 65.9507C37.0735 65.9511 36.5094 65.7198 36.0933 65.3076L33.2262 62.463V68.1478C33.2262 68.7309 32.9928 69.29 32.5773 69.7023C32.1617 70.1145 31.5982 70.3461 31.0105 70.3461Z" fill="#04D2FF"/>
</svg>
