<svg width="15" height="13" viewBox="0 0 15 13" fill="none" xmlns="http://www.w3.org/2000/svg">
<path d="M5.625 3H6.5625V5H8.4375V3H9.375L7.5 0L5.625 3Z" fill="#363B64"/>
<path d="M11.6438 10.82L12.375 9L10.5 8.77L10.3125 6.8L8.60625 7.58L7.5 6L6.39375 7.58L4.6875 6.8L4.47188 8.8L2.625 9L3.35625 10.82L1.875 12H0V13H15V12H13.125L11.6438 10.82ZM3.75 12C3.78332 10.9516 4.18822 9.95577 4.88298 9.21339C5.57775 8.47101 6.51065 8.03738 7.49344 8C8.47743 8.0338 9.41268 8.46493 10.11 9.20619C10.8074 9.94745 11.2149 10.9435 11.25 11.993L3.75 12Z" fill="#363B64"/>
</svg>
