<svg width="13" height="13" viewBox="0 0 13 13" fill="none" xmlns="http://www.w3.org/2000/svg">
<path d="M6.49064 0.00224073C6.46961 0.00605391 6.44886 0.0112242 6.42849 0.0177196C6.31626 0.042986 6.21622 0.10656 6.14542 0.197609C6.07463 0.288657 6.03746 0.401546 6.04024 0.517038V2.01499C6.04024 2.14742 6.09262 2.27442 6.18584 2.36806C6.27907 2.46171 6.40552 2.51431 6.53737 2.51431C6.66921 2.51431 6.79566 2.46171 6.88889 2.36806C6.98212 2.27442 7.03449 2.14742 7.03449 2.01499V0.517038C7.037 0.446034 7.0244 0.375309 6.99752 0.309589C6.97064 0.243869 6.93011 0.184667 6.87863 0.135939C6.82715 0.0872109 6.76591 0.0500782 6.699 0.0270221C6.63209 0.003966 6.56106 -0.00448262 6.49064 0.00224073ZM3.47706 0.813633C3.39609 0.82523 3.31922 0.856714 3.25326 0.905293C3.18731 0.953872 3.1343 1.01805 3.09895 1.09212C3.0636 1.1662 3.04699 1.2479 3.05059 1.32997C3.0542 1.41204 3.07791 1.49195 3.11963 1.56261L3.86531 2.87332C3.93271 2.98627 4.04149 3.06818 4.16831 3.10151C4.29514 3.13483 4.42992 3.11691 4.54375 3.05158C4.65757 2.98625 4.74137 2.87872 4.77718 2.75205C4.81299 2.62538 4.79795 2.48966 4.73528 2.374L3.9896 1.06329C3.93993 0.97394 3.86413 0.902073 3.77246 0.857418C3.68079 0.812764 3.57767 0.797479 3.47706 0.813633ZM9.42666 0.813633C9.35497 0.827507 9.28721 0.857069 9.22818 0.900218C9.16916 0.943367 9.12032 0.999044 9.08513 1.06329L8.33945 2.374C8.27678 2.48966 8.26174 2.62538 8.29755 2.75205C8.33336 2.87872 8.41716 2.98625 8.53098 3.05158C8.64481 3.11691 8.77959 3.13483 8.90642 3.10151C9.03325 3.06818 9.14202 2.98627 9.20942 2.87332L9.9551 1.56261C10.0016 1.48286 10.0252 1.3917 10.0232 1.29929C10.0212 1.20687 9.99373 1.11683 9.94379 1.03918C9.89385 0.961537 9.82344 0.899339 9.74038 0.859517C9.65733 0.819694 9.5649 0.80381 9.47339 0.813633C9.45799 0.812913 9.44256 0.812913 9.42716 0.813633H9.42666ZM11.6796 2.99815C11.6638 3.00253 11.6482 3.0077 11.6329 3.01363C11.5726 3.02369 11.5146 3.04485 11.4619 3.07605L10.1569 3.82502C10.0445 3.89271 9.96293 4.00197 9.92975 4.12936C9.89658 4.25675 9.91442 4.39212 9.97946 4.50645C10.0445 4.62078 10.1516 4.70495 10.2777 4.74091C10.4038 4.77688 10.5389 4.76177 10.6541 4.69883L11.959 3.94985C12.0715 3.90207 12.1625 3.81439 12.2147 3.70354C12.2669 3.59269 12.2767 3.46641 12.2421 3.34878C12.2076 3.23115 12.1312 3.1304 12.0275 3.06574C11.9237 3.00107 11.7999 2.97702 11.6796 2.99815ZM1.28623 3.01363C1.18153 3.02702 1.0838 3.07353 1.00718 3.14643C0.930555 3.21933 0.879017 3.31482 0.860026 3.4191C0.841035 3.52337 0.855575 3.63101 0.901543 3.72643C0.947511 3.82185 1.02252 3.9001 1.11571 3.94985L2.42067 4.69883C2.53582 4.76177 2.67094 4.77688 2.79705 4.74091C2.92317 4.70495 3.03022 4.62078 3.09527 4.50645C3.16031 4.39212 3.17815 4.25675 3.14498 4.12936C3.1118 4.00197 3.03024 3.89271 2.91779 3.82502L1.61284 3.07605C1.51447 3.01832 1.39934 2.99629 1.28672 3.01363H1.28623ZM6.53737 3.01363C6.08038 3.01363 5.62787 3.10404 5.20567 3.27969C4.78347 3.45534 4.39986 3.7128 4.07672 4.03736C3.75358 4.36192 3.49726 4.74723 3.32238 5.17129C3.1475 5.59535 3.05749 6.04986 3.05749 6.50886C3.05749 6.96786 3.1475 7.42237 3.32238 7.84643C3.49726 8.27049 3.75358 8.6558 4.07672 8.98036C4.39986 9.30492 4.78347 9.56238 5.20567 9.73803C5.62787 9.91368 6.08038 10.0041 6.53737 10.0041C7.46029 10.0041 8.34541 9.63584 8.99801 8.98036C9.65062 8.32488 10.0172 7.43585 10.0172 6.50886C10.0172 5.58187 9.65062 4.69284 8.99801 4.03736C8.34541 3.38188 7.46029 3.01363 6.53737 3.01363ZM6.53737 4.01227C7.90794 4.01227 9.02299 5.13224 9.02299 6.50886C9.02299 7.88548 7.90794 9.00545 6.53737 9.00545C5.16679 9.00545 4.05174 7.88548 4.05174 6.50886C4.05174 5.13224 5.16679 4.01227 6.53737 4.01227ZM0.432164 6.00954C0.300318 6.02815 0.181231 6.0986 0.101101 6.20539C0.0209703 6.31219 -0.0136396 6.44659 0.00488475 6.57901C0.0234091 6.71144 0.0935503 6.83105 0.199878 6.91154C0.306206 6.99202 0.440011 7.02678 0.571857 7.00818H2.06323C2.19508 7.00818 2.32153 6.95557 2.41475 6.86193C2.50798 6.76829 2.56036 6.64129 2.56036 6.50886C2.56036 6.37643 2.50798 6.24943 2.41475 6.15579C2.32153 6.06215 2.19508 6.00954 2.06323 6.00954H0.571857C0.556289 6.00881 0.540695 6.00881 0.525127 6.00954C0.509559 6.00881 0.493965 6.00881 0.478397 6.00954C0.462994 6.00882 0.447567 6.00882 0.432164 6.00954ZM10.8718 6.00954C10.74 6.02815 10.6209 6.0986 10.5407 6.20539C10.4606 6.31219 10.426 6.44659 10.4445 6.57901C10.463 6.71144 10.5332 6.83105 10.6395 6.91154C10.7458 6.99202 10.8797 7.02678 11.0115 7.00818H12.5029C12.6347 7.00818 12.7612 6.95557 12.8544 6.86193C12.9476 6.76829 13 6.64129 13 6.50886C13 6.37643 12.9476 6.24943 12.8544 6.15579C12.7612 6.06215 12.6347 6.00954 12.5029 6.00954H11.0115C10.9959 6.00881 10.9803 6.00881 10.9648 6.00954C10.9494 6.00882 10.9339 6.00882 10.9185 6.00954C10.903 6.00881 10.8874 6.00881 10.8718 6.00954ZM2.63791 8.241C2.62226 8.24539 2.60683 8.25056 2.59168 8.25647C2.53134 8.26654 2.47336 8.28769 2.42067 8.31889L1.11571 9.06787C1.00326 9.13556 0.921706 9.24482 0.888529 9.3722C0.855351 9.49959 0.873197 9.63497 0.93824 9.74929C1.00328 9.86362 1.11034 9.94779 1.23645 9.98376C1.36256 10.0197 1.49769 10.0046 1.61284 9.94167L2.91779 9.1927C3.03037 9.14496 3.12151 9.05724 3.17378 8.9463C3.22606 8.83535 3.23582 8.70896 3.20121 8.59124C3.16659 8.47353 3.09002 8.37275 2.98611 8.30814C2.88221 8.24353 2.75825 8.21963 2.63791 8.241ZM10.3279 8.25647C10.2232 8.26979 10.1254 8.31624 10.0487 8.3891C9.97205 8.46196 9.92044 8.55745 9.90139 8.66174C9.88234 8.76603 9.89684 8.8737 9.94279 8.96916C9.98873 9.06462 10.0637 9.14291 10.1569 9.1927L11.4619 9.94167C11.577 10.0046 11.7122 10.0197 11.8383 9.98376C11.9644 9.94779 12.0714 9.86362 12.1365 9.74929C12.2015 9.63497 12.2194 9.49959 12.1862 9.3722C12.153 9.24482 12.0715 9.13556 11.959 9.06787L10.6541 8.31889C10.5557 8.26117 10.4406 8.23913 10.3279 8.25647ZM4.20684 9.89474C4.13515 9.90861 4.06739 9.93817 4.00836 9.98132C3.94934 10.0245 3.9005 10.0801 3.86531 10.1444L3.11963 11.4551C3.05696 11.5708 3.04192 11.7065 3.07773 11.8332C3.11354 11.9598 3.19734 12.0674 3.31116 12.1327C3.42499 12.198 3.55977 12.2159 3.6866 12.1826C3.81343 12.1493 3.9222 12.0674 3.9896 11.9544L4.73528 10.6437C4.78182 10.564 4.8054 10.4728 4.80341 10.3804C4.80141 10.288 4.77391 10.1979 4.72397 10.1203C4.67403 10.0426 4.60362 9.98044 4.52056 9.94062C4.43751 9.9008 4.34508 9.88492 4.25357 9.89474C4.238 9.894 4.22241 9.894 4.20684 9.89474ZM8.69688 9.89474C8.61591 9.90634 8.53904 9.93782 8.47308 9.9864C8.40713 10.035 8.35412 10.0992 8.31877 10.1732C8.28342 10.2473 8.26681 10.329 8.27042 10.4111C8.27402 10.4931 8.29773 10.5731 8.33945 10.6437L9.08513 11.9544C9.15253 12.0674 9.26131 12.1493 9.38813 12.1826C9.51497 12.2159 9.64974 12.198 9.76357 12.1327C9.87739 12.0674 9.96119 11.9598 9.997 11.8332C10.0328 11.7065 10.0178 11.5708 9.9551 11.4551L9.20942 10.1444C9.15975 10.055 9.08395 9.98318 8.99228 9.93852C8.90061 9.89387 8.79749 9.87858 8.69688 9.89474ZM6.49064 10.4879C6.46961 10.4917 6.44886 10.4969 6.42849 10.5034C6.31626 10.5287 6.21622 10.5922 6.14542 10.6833C6.07463 10.7743 6.03746 10.8872 6.04024 11.0027V12.5007C6.04024 12.6331 6.09262 12.7601 6.18584 12.8538C6.27907 12.9474 6.40552 13 6.53737 13C6.66921 13 6.79566 12.9474 6.88889 12.8538C6.98212 12.7601 7.03449 12.6331 7.03449 12.5007V11.0027C7.037 10.9317 7.0244 10.861 6.99752 10.7953C6.97064 10.7296 6.93011 10.6704 6.87863 10.6216C6.82715 10.5729 6.76591 10.5358 6.699 10.5127C6.63209 10.4897 6.56106 10.4812 6.49064 10.4879Z" fill="#363B64"/>
</svg>
