<svg width="10" height="13" viewBox="0 0 10 13" fill="none" xmlns="http://www.w3.org/2000/svg">
<path d="M7.8125 0.928573C7.3981 0.928573 7.00067 1.17315 6.70764 1.6085C6.41462 2.04386 6.25 2.63432 6.25 3.25C6.25 3.37314 6.21708 3.49123 6.15847 3.5783C6.09987 3.66537 6.02038 3.71429 5.9375 3.71429C5.85462 3.71429 5.77513 3.66537 5.71653 3.5783C5.65792 3.49123 5.625 3.37314 5.625 3.25C5.625 2.60721 5.75329 1.97886 5.99366 1.4444C6.23403 0.909938 6.57567 0.493378 6.97538 0.247393C7.37509 0.00140817 7.81493 -0.0629527 8.23926 0.0624493C8.66359 0.187851 9.05337 0.497384 9.35929 0.951904C9.66522 1.40643 9.87356 1.98552 9.95797 2.61596C10.0424 3.2464 9.99905 3.89986 9.83349 4.49372C9.66792 5.08758 9.38754 5.59516 9.02781 5.95228C8.66808 6.30939 8.24515 6.5 7.8125 6.5H0.3125C0.22962 6.5 0.150134 6.45109 0.0915291 6.36402C0.032924 6.27694 0 6.15885 0 6.03572C0 5.91258 0.032924 5.79449 0.0915291 5.70742C0.150134 5.62035 0.22962 5.57143 0.3125 5.57143H7.8125C8.2269 5.57143 8.62433 5.32685 8.91735 4.8915C9.21038 4.45615 9.375 3.86568 9.375 3.25C9.375 2.63432 9.21038 2.04386 8.91735 1.6085C8.62433 1.17315 8.2269 0.928573 7.8125 0.928573ZM3.4375 1.85714C3.27174 1.85714 3.11277 1.95498 2.99556 2.12912C2.87835 2.30326 2.8125 2.53944 2.8125 2.78572C2.8125 2.90885 2.77958 3.02694 2.72097 3.11402C2.66237 3.20109 2.58288 3.25 2.5 3.25C2.41712 3.25 2.33763 3.20109 2.27903 3.11402C2.22042 3.02694 2.1875 2.90885 2.1875 2.78572C2.1875 2.41841 2.26081 2.05935 2.39816 1.75394C2.53551 1.44854 2.73074 1.2105 2.95915 1.06994C3.18755 0.929377 3.43889 0.892599 3.68136 0.964257C3.92384 1.03592 4.14657 1.21279 4.32138 1.47252C4.4962 1.73224 4.61525 2.06315 4.66348 2.42341C4.71171 2.78366 4.68696 3.15707 4.59235 3.49641C4.49774 3.83576 4.33752 4.12581 4.13196 4.32987C3.9264 4.53394 3.68473 4.64286 3.4375 4.64286H0.3125C0.22962 4.64286 0.150134 4.59394 0.0915291 4.50687C0.032924 4.4198 0 4.30171 0 4.17857C0 4.05544 0.032924 3.93734 0.0915291 3.85027C0.150134 3.7632 0.22962 3.71429 0.3125 3.71429H3.4375C3.60326 3.71429 3.76223 3.61646 3.87944 3.44231C3.99665 3.26817 4.0625 3.03199 4.0625 2.78572C4.0625 2.53944 3.99665 2.30326 3.87944 2.12912C3.76223 1.95498 3.60326 1.85714 3.4375 1.85714ZM0 7.89286C0 7.76972 0.032924 7.65163 0.0915291 7.56456C0.150134 7.47749 0.22962 7.42857 0.3125 7.42857H6.58875C6.95959 7.42857 7.3221 7.59195 7.63044 7.89805C7.93879 8.20415 8.17911 8.63922 8.32102 9.14824C8.46294 9.65726 8.50007 10.2174 8.42772 10.7578C8.35537 11.2981 8.1768 11.7945 7.91457 12.1841C7.65235 12.5737 7.31826 12.839 6.95454 12.9465C6.59083 13.054 6.21383 12.9988 5.87122 12.788C5.52861 12.5771 5.23577 12.2201 5.02974 11.7619C4.82372 11.3038 4.71375 10.7653 4.71375 10.2143C4.71375 10.0912 4.74667 9.97306 4.80528 9.88599C4.86388 9.79892 4.94337 9.75 5.02625 9.75C5.10913 9.75 5.18862 9.79892 5.24722 9.88599C5.30583 9.97306 5.33875 10.0912 5.33875 10.2143C5.33875 10.5816 5.41206 10.9407 5.54941 11.2461C5.68676 11.5515 5.88199 11.7895 6.1104 11.9301C6.3388 12.0706 6.59014 12.1074 6.83261 12.0357C7.07509 11.9641 7.29782 11.7872 7.47263 11.5275C7.64745 11.2678 7.7665 10.9368 7.81473 10.5766C7.86296 10.2163 7.83821 9.84294 7.7436 9.50359C7.64899 9.16424 7.48877 8.8742 7.28321 8.67013C7.07765 8.46606 6.83598 8.35715 6.58875 8.35715H0.3125C0.22962 8.35715 0.150134 8.30823 0.0915291 8.22116C0.032924 8.13409 0 8.016 0 7.89286Z" fill="#363B64"/>
</svg>
